# Blender 4.4.3
# www.blender.org
mtllib Low effort human.mtl
o Cube
v 0.202904 0.497271 -0.256625
v 0.202904 -0.497271 -0.256625
v 0.202904 0.497271 0.256625
v 0.202904 -0.497271 0.256625
v -0.202904 0.497271 -0.256625
v -0.202904 -0.497271 -0.256625
v -0.202904 0.497271 0.256625
v -0.202904 -0.497271 0.256625
v 0.148165 0.517291 0.195011
v -0.148165 0.517291 0.195011
v 0.148165 0.517291 -0.195011
v -0.148165 0.517291 -0.195011
v 0.148165 0.550641 0.195011
v -0.148165 0.550641 0.195011
v 0.148165 0.550641 -0.195011
v -0.148165 0.550641 -0.195011
v 0.086973 0.593715 0.080697
v -0.086973 0.593715 0.080697
v 0.086973 0.593715 -0.080697
v -0.086973 0.593715 -0.080697
v 0.086973 0.630169 0.080697
v -0.086973 0.630169 0.080697
v 0.086973 0.630169 -0.080697
v -0.086973 0.630169 -0.080697
v 0.127334 0.663399 0.128776
v -0.127334 0.663399 0.128776
v 0.127334 0.663399 -0.128776
v -0.127334 0.663399 -0.128776
v 0.127334 0.930462 0.128776
v -0.127334 0.930462 0.128776
v 0.127334 0.930462 -0.128776
v -0.127334 0.930462 -0.128776
v 0.127334 0.778093 -0.048584
v 0.127334 0.778093 0.052103
v 0.127334 0.889555 -0.091174
v 0.127334 0.889555 0.098448
v 0.127334 0.831334 -0.091174
v 0.127334 0.717026 -0.027323
v 0.127334 0.717026 0.033555
v 0.127334 0.831169 0.098448
v 0.127334 0.889555 -0.031826
v 0.127334 0.889555 0.040758
v 0.127334 0.831287 -0.033268
v 0.127334 0.777391 0.032702
v 0.127334 0.831214 0.043064
v 0.127334 0.778003 -0.027516
v 0.147081 0.717026 -0.027323
v 0.147081 0.717026 0.033555
v 0.147081 0.778003 -0.027516
v 0.147081 0.777391 0.032702
v 0.148905 0.710066 -0.040791
v 0.148905 0.710066 0.047256
v 0.148905 0.785033 -0.041069
v 0.148905 0.784281 0.046022
v 0.174187 0.710066 -0.040791
v 0.174187 0.710066 0.047256
v 0.174187 0.785033 -0.041069
v 0.174187 0.784281 0.046022
v 0.144420 0.889555 0.040758
v 0.144420 0.889555 0.098448
v 0.144420 0.831169 0.098448
v 0.144420 0.889555 -0.091174
v 0.144420 0.831334 -0.091174
v 0.144420 0.889555 -0.031826
v 0.144420 0.831287 -0.033268
v 0.144420 0.831214 0.043064
v 0.144420 0.885461 -0.086713
v 0.144420 0.835425 -0.086713
v 0.144420 0.885461 -0.036397
v 0.144420 0.835384 -0.037620
v 0.144420 0.886495 0.044914
v 0.144420 0.886495 0.094454
v 0.144420 0.834231 0.094454
v 0.144420 0.834271 0.046895
v 0.138899 0.885461 -0.086713
v 0.138899 0.835425 -0.086713
v 0.138899 0.885461 -0.036397
v 0.138899 0.835384 -0.037620
v 0.138899 0.886495 0.044914
v 0.138899 0.886495 0.094454
v 0.138899 0.834231 0.094454
v 0.138899 0.834271 0.046895
v -0.081274 0.285251 0.295335
v -0.081274 0.461560 0.295335
v 0.081274 0.461560 0.295335
v 0.081274 0.285251 0.295335
v -0.081274 0.285251 0.458772
v -0.081274 0.461560 0.458772
v 0.081274 0.461560 0.458772
v 0.081274 0.285251 0.458772
v -0.081274 0.285251 0.906983
v -0.081274 0.461560 0.906983
v 0.081274 0.461560 0.906983
v 0.081274 0.285251 0.906983
v 0.081274 0.285251 0.715519
v -0.081274 0.285251 0.715519
v 0.081274 0.461560 0.715519
v -0.081274 0.461560 0.715519
v 0.886311 0.461560 0.906983
v 0.886311 0.285251 0.906983
v 0.886311 0.285251 0.715519
v 0.886311 0.461560 0.715519
v 0.700917 0.285251 0.906983
v 0.700917 0.461560 0.906983
v 0.700917 0.461560 0.715519
v 0.700917 0.285251 0.715519
v 0.886311 0.461560 0.176464
v 0.886311 0.285251 0.176464
v 0.700917 0.285251 0.176464
v 0.700917 0.461560 0.176464
v 0.202904 -0.349437 -0.256625
v -0.202904 -0.349437 0.256625
v 0.202904 -0.349437 0.256625
v -0.202904 -0.349437 -0.256625
v -0.081274 0.311458 0.295335
v 0.081274 0.311458 0.295335
v -0.081274 0.311458 0.458772
v 0.081274 0.311458 0.458772
v -0.081274 0.311458 0.906983
v 0.081274 0.311458 0.906983
v -0.081274 0.311458 0.715519
v 0.081274 0.311458 0.715519
v 0.886311 0.311458 0.906983
v 0.886311 0.311458 0.715519
v 0.700917 0.311458 0.715519
v 0.700917 0.311458 0.906983
v 0.886311 0.311458 0.176464
v 0.700917 0.311458 0.176464
v -0.202904 -0.497271 0.043846
v 0.202904 0.497271 0.043846
v -0.202904 0.497271 0.043846
v 0.202904 -0.497271 0.043846
v 0.148165 0.517291 0.033319
v -0.148165 0.517291 0.033319
v 0.148165 0.550641 0.033319
v -0.148165 0.550641 0.033319
v 0.086973 0.593715 0.013788
v -0.086973 0.593715 0.013788
v 0.086973 0.630169 0.013788
v -0.086973 0.630169 0.013788
v 0.127334 0.663399 0.022002
v -0.127334 0.663399 0.022002
v 0.127334 0.930462 0.022002
v -0.127334 0.930462 0.022002
v 0.202904 -0.349437 0.043846
v -0.202904 -0.349437 0.043846
v -0.202904 0.497271 -0.055306
v 0.202904 -0.497271 -0.055306
v -0.148165 0.517291 -0.042027
v -0.148165 0.550641 -0.042027
v -0.086973 0.593715 -0.017391
v -0.086973 0.630169 -0.017391
v -0.127334 0.663399 -0.027753
v -0.127334 0.930462 -0.027753
v -0.202904 -0.349437 -0.055306
v -0.202904 -0.497271 -0.055306
v 0.202904 0.497271 -0.055306
v 0.148165 0.517291 -0.042027
v 0.148165 0.550641 -0.042027
v 0.086973 0.593715 -0.017391
v 0.086973 0.630169 -0.017391
v 0.127334 0.663399 -0.027753
v 0.127334 0.930462 -0.027753
v 0.202904 -0.349437 -0.055306
v 0.518280 -0.349437 -0.256625
v 0.518280 -0.497271 -0.256625
v 0.518280 -0.349437 0.256625
v 0.518280 -0.497271 0.256625
v 0.518280 -0.497271 -0.055306
v 0.518280 -0.349437 0.043846
v 0.518280 -0.497271 0.043846
v 0.518280 -0.349437 -0.055306
v 0.749479 0.311458 0.176464
v 0.844950 0.311458 0.176464
v 0.744703 0.285251 0.176464
v 0.827993 0.285251 0.176464
v 0.886311 0.426062 0.176464
v 0.841256 0.461560 0.176464
v 0.700917 0.424301 0.176464
v 0.770397 0.461560 0.176464
v 0.886311 0.342312 0.070713
v 0.886311 0.316105 0.070713
v 0.827993 0.316105 0.070713
v 0.770397 0.421016 0.070713
v 0.700917 0.421016 0.070713
v 0.700917 0.357754 0.070713
v 0.700917 0.331546 0.070713
v 0.844950 0.342312 0.070713
v 0.749479 0.357754 0.070713
v 0.744703 0.331546 0.070713
v 0.886311 0.420921 0.070713
v 0.886311 0.385423 0.070713
v 0.841256 0.420921 0.070713
v 0.700917 0.383757 0.070713
vn -0.0000 0.9511 0.3090
vn -0.0000 -0.0494 0.9988
vn -1.0000 -0.0000 -0.0000
vn -0.0000 -1.0000 -0.0000
vn 1.0000 -0.0000 -0.0000
vn -0.0000 -0.0000 -1.0000
vn -0.0000 -0.0000 1.0000
vn -0.3435 0.9392 -0.0000
vn 0.3435 0.9392 -0.0000
vn -0.0000 0.9511 -0.3090
vn -0.0000 0.9358 -0.3526
vn 0.5756 0.8177 -0.0000
vn -0.5756 0.8177 -0.0000
vn -0.0000 0.9358 0.3526
vn -0.0000 -0.8226 -0.5686
vn 0.6356 -0.7720 -0.0000
vn -0.6356 -0.7720 -0.0000
vn -0.0000 -0.8226 0.5686
vn -0.0000 1.0000 -0.0000
vn -0.0000 -0.0247 0.9997
vn -0.9910 -0.0005 -0.1338
vn -0.0000 0.0141 0.9999
vn -0.0000 0.9999 0.0102
vn -0.0000 -0.0032 -1.0000
vn -0.9673 -0.2536 -0.0000
vn -0.9910 0.0021 0.1338
vn -0.9673 0.2536 0.0023
vn -0.0000 0.0166 0.9999
vn -0.0000 1.0000 0.0086
vn -0.0000 -0.0037 -1.0000
vn -0.0000 -0.0395 -0.9992
vn -0.0000 -1.0000 -0.0008
vn -0.0000 1.0000 0.0008
vn -0.0000 0.0379 0.9993
vn -0.0000 0.0244 -0.9997
vn -0.0000 0.7350 0.6781
vn 0.3033 -0.0000 0.9529
vn -0.3033 -0.0000 0.9529
vn -0.0000 -0.9600 -0.2801
vn -0.8292 0.5365 0.1565
vn 0.4477 -0.8349 0.3201
vn 0.9808 -0.1787 -0.0782
vn -0.0000 0.9337 -0.3580
vn -0.0000 0.9334 -0.3587
vn -0.0000 0.9161 0.4010
vn -0.5925 -0.7520 0.2890
vn -0.0000 0.9600 0.2801
vn -0.0000 -0.9161 -0.4010
vt 0.625000 1.000000
vt 0.625000 0.750000
vt 0.125000 0.750000
vt 0.375000 0.750000
vt 0.412161 0.151939
vt 0.625000 0.151939
vt 0.625000 0.250000
vt 0.412161 0.250000
vt 0.125000 0.646357
vt 0.375000 0.646357
vt 0.412161 0.646357
vt 0.625000 0.646357
vt 0.412161 0.750000
vt 0.625000 0.500000
vt 0.412161 0.500000
vt 0.625000 0.103643
vt 0.625000 0.000000
vt 0.625000 0.598061
vt 0.625000 0.598061
vt 0.625000 0.646357
vt 0.875000 0.646357
vt 0.875000 0.750000
vt 0.625000 0.684659
vt 0.625000 0.683076
vt 0.625000 0.681954
vt 0.625000 0.598061
vt 0.625000 0.679120
vt 0.625000 0.572917
vt 0.625000 0.571750
vt 0.625000 0.571145
vt 0.625000 0.571393
vt 0.412161 0.750000
vt 0.412161 0.000000
vt 0.375000 0.000000
vt 0.412161 1.000000
vt 0.572168 0.750000
vt 0.574665 0.750000
vt 0.375000 1.000000
vt 0.375000 0.250000
vt 0.375000 0.500000
vt 0.375000 0.151939
vt 0.412161 0.103643
vt 0.375000 0.103643
vt 0.375000 0.598061
vt 0.412161 0.598061
vt 0.875000 0.598061
vt 0.125000 0.598061
vt 0.125000 0.500000
vt 0.875000 0.500000
s 0
usemtl Material
f 7/1/1 3/2/1 9/2/1 10/1/1
f 8/3/2 4/4/2 86/4/2 83/3/2
f 155/5/3 147/6/3 5/7/3 114/8/3
f 129/9/4 132/10/4 4/4/4 8/3/4
f 145/11/5 130/12/5 3/2/5 113/13/5
f 114/8/6 5/7/6 1/14/6 111/15/6
f 10/1/7 9/2/7 13/2/7 14/1/7
f 131/16/8 7/17/8 10/17/8 134/16/8
f 157/18/9 1/14/9 11/14/9 158/18/9
f 1/14/10 5/7/10 12/7/10 11/14/10
f 15/14/11 16/7/11 20/7/11 19/14/11
f 11/14/6 12/7/6 16/7/6 15/14/6
f 158/18/5 11/14/5 15/14/5 159/18/5
f 134/16/3 10/17/3 14/17/3 136/16/3
f 138/16/3 18/17/3 22/17/3 140/16/3
f 159/18/12 15/14/12 19/14/12 160/18/12
f 136/16/13 14/17/13 18/17/13 138/16/13
f 14/1/14 13/2/14 17/2/14 18/1/14
f 23/14/15 24/7/15 28/7/15 27/14/15
f 18/1/7 17/2/7 21/2/7 22/1/7
f 19/14/6 20/7/6 24/7/6 23/14/6
f 160/18/5 19/14/5 23/14/5 161/18/5
f 142/16/3 26/17/3 30/17/3 144/16/3
f 161/18/16 23/14/16 27/14/16 162/19/16
f 140/16/17 22/17/17 26/17/17 142/16/17
f 22/1/18 21/2/18 25/2/18 26/1/18
f 143/20/19 144/21/19 30/22/19 29/2/19
f 26/1/7 25/2/7 29/2/7 30/1/7
f 27/14/6 28/7/6 32/7/6 31/14/6
f 27/14/5 31/14/5 35/14/5 37/14/5 33/14/5
f 34/2/5 39/23/5 44/24/5 45/25/5 40/2/5
f 31/14/5 163/26/5 143/20/5 29/2/5 36/2/5 42/27/5 41/28/5 35/14/5
f 29/2/5 25/2/5 34/2/5 40/2/5 36/2/5
f 25/2/5 141/12/5 162/19/5 27/14/5 33/14/5 38/29/5 39/23/5 34/2/5
f 42/27/19 36/2/19 60/2/19 59/27/19
f 42/27/5 45/25/5 43/30/5 41/28/5
f 41/28/20 43/30/20 65/30/20 64/28/20
f 37/14/5 43/30/5 46/31/5 38/29/5 33/14/5
f 39/23/4 38/29/4 47/29/4 48/23/4
f 46/31/5 43/30/5 45/25/5 44/24/5
f 47/29/21 49/31/21 53/31/21 51/29/21
f 44/24/22 39/23/22 48/23/22 50/24/22
f 46/31/23 44/24/23 50/24/23 49/31/23
f 38/29/24 46/31/24 49/31/24 47/29/24
f 52/23/4 51/29/4 55/29/4 56/23/4
f 48/23/25 47/29/25 51/29/25 52/23/25
f 50/24/26 48/23/26 52/23/26 54/24/26
f 49/31/27 50/24/27 54/24/27 53/31/27
f 55/29/5 57/31/5 58/24/5 56/23/5
f 54/24/28 52/23/28 56/23/28 58/24/28
f 53/31/29 54/24/29 58/24/29 57/31/29
f 51/29/30 53/31/30 57/31/30 55/29/30
f 61/2/5 66/25/5 74/25/5 73/2/5
f 65/30/5 63/14/5 68/14/5 70/30/5
f 35/14/19 41/28/19 64/28/19 62/14/19
f 37/14/6 35/14/6 62/14/6 63/14/6
f 36/2/7 40/2/7 61/2/7 60/2/7
f 45/25/31 42/27/31 59/27/31 66/25/31
f 40/2/32 45/25/32 66/25/32 61/2/32
f 43/30/32 37/14/32 63/14/32 65/30/32
f 70/30/33 68/14/33 76/14/33 78/30/33
f 63/14/5 62/14/5 67/14/5 68/14/5
f 64/28/5 65/30/5 70/30/5 69/28/5
f 62/14/5 64/28/5 69/28/5 67/14/5
f 71/27/4 72/2/4 80/2/4 79/27/4
f 60/2/5 61/2/5 73/2/5 72/2/5
f 66/25/5 59/27/5 71/27/5 74/25/5
f 59/27/5 60/2/5 72/2/5 71/27/5
f 77/28/5 78/30/5 76/14/5 75/14/5
f 81/2/5 82/25/5 79/27/5 80/2/5
f 74/25/34 71/27/34 79/27/34 82/25/34
f 68/14/7 67/14/7 75/14/7 76/14/7
f 72/2/6 73/2/6 81/2/6 80/2/6
f 69/28/35 70/30/35 78/30/35 77/28/35
f 67/14/4 69/28/4 77/28/4 75/14/4
f 73/2/33 74/25/33 82/25/33 81/2/33
f 85/2/19 84/1/19 88/1/19 89/2/19
f 3/2/36 7/1/36 84/1/36 85/2/36
f 113/13/37 3/2/37 85/2/37 116/32/37
f 112/33/38 8/34/38 83/34/38 115/33/38
f 96/3/4 95/4/4 94/4/4 91/3/4
f 115/33/3 83/34/3 87/34/3 117/33/3
f 83/3/4 86/4/4 90/4/4 87/3/4
f 116/32/5 85/2/5 89/2/5 118/32/5
f 120/32/7 93/2/7 92/1/7 119/35/7
f 126/32/7 103/4/7 100/4/7 123/32/7
f 97/2/19 98/1/19 92/1/19 93/2/19
f 121/33/3 96/34/3 91/34/3 119/33/3
f 117/33/3 87/34/3 96/34/3 121/33/3
f 89/2/19 88/1/19 98/1/19 97/2/19
f 118/32/5 89/2/5 97/2/5 122/32/5
f 87/3/4 90/4/4 95/4/4 96/3/4
f 124/32/5 102/2/5 99/2/5 123/32/5
f 105/2/19 104/2/19 99/2/19 102/2/19
f 103/4/4 106/4/4 101/4/4 100/4/4
f 101/4/4 106/4/4 109/4/4 175/4/4 176/4/4 108/4/4
f 122/32/6 97/2/6 105/2/6 125/32/6
f 94/4/4 95/4/4 106/4/4 103/4/4
f 97/2/19 93/2/19 104/2/19 105/2/19
f 120/32/7 94/4/7 103/4/7 126/32/7
f 128/32/6 179/36/6 180/2/6 178/2/6 177/37/6 127/32/6 174/32/6 173/32/6
f 124/32/5 101/4/5 108/4/5 127/32/5
f 125/32/3 105/2/3 110/2/3 179/36/3 128/32/3
f 105/2/19 102/2/19 107/2/19 178/2/19 180/2/19 110/2/19
f 106/4/3 125/32/3 128/32/3 109/4/3
f 102/2/5 124/32/5 127/32/5 177/37/5 107/2/5
f 108/4/39 176/4/39 183/4/39 182/4/39
f 93/2/7 120/32/7 126/32/7 104/2/7
f 95/4/6 122/32/6 125/32/6 106/4/6
f 101/4/5 124/32/5 123/32/5 100/4/5
f 90/4/5 118/32/5 122/32/5 95/4/5
f 88/17/3 117/33/3 121/33/3 98/17/3
f 98/17/3 121/33/3 119/33/3 92/17/3
f 104/2/7 126/32/7 123/32/7 99/2/7
f 94/4/7 120/32/7 119/35/7 91/38/7
f 86/4/5 116/32/5 118/32/5 90/4/5
f 84/17/3 115/33/3 117/33/3 88/17/3
f 7/17/38 112/33/38 115/33/38 84/17/38
f 4/4/37 113/13/37 116/32/37 86/4/37
f 6/39/6 114/8/6 111/15/6 2/40/6
f 145/11/19 113/13/19 167/13/19 170/11/19
f 156/41/3 155/5/3 114/8/3 6/39/3
f 8/34/3 112/33/3 146/42/3 129/43/3
f 148/44/5 164/45/5 145/11/5 132/10/5
f 163/26/19 154/46/19 144/21/19 143/20/19
f 152/6/17 140/16/17 142/16/17 153/6/17
f 21/2/16 139/12/16 141/12/16 25/2/16
f 153/6/3 142/16/3 144/16/3 154/6/3
f 17/2/5 137/12/5 139/12/5 21/2/5
f 150/6/13 136/16/13 138/16/13 151/6/13
f 13/2/12 135/12/12 137/12/12 17/2/12
f 151/6/3 138/16/3 140/16/3 152/6/3
f 149/6/3 134/16/3 136/16/3 150/6/3
f 9/2/5 133/12/5 135/12/5 13/2/5
f 3/2/9 130/12/9 133/12/9 9/2/9
f 147/6/8 131/16/8 134/16/8 149/6/8
f 164/45/5 157/18/5 130/12/5 145/11/5
f 156/47/4 148/44/4 132/10/4 129/9/4
f 112/33/3 7/17/3 131/16/3 146/42/3
f 6/48/4 2/40/4 148/44/4 156/47/4
f 111/15/5 1/14/5 157/18/5 164/45/5
f 5/7/8 147/6/8 149/6/8 12/7/8
f 12/7/3 149/6/3 150/6/3 16/7/3
f 20/7/3 151/6/3 152/6/3 24/7/3
f 16/7/13 150/6/13 151/6/13 20/7/13
f 28/7/3 153/6/3 154/6/3 32/7/3
f 24/7/17 152/6/17 153/6/17 28/7/17
f 31/14/19 32/49/19 154/46/19 163/26/19
f 113/13/7 4/4/7 168/4/7 167/13/7
f 129/43/3 146/42/3 155/5/3 156/41/3
f 139/12/16 161/18/16 162/19/16 141/12/16
f 137/12/5 160/18/5 161/18/5 139/12/5
f 135/12/12 159/18/12 160/18/12 137/12/12
f 133/12/5 158/18/5 159/18/5 135/12/5
f 130/12/9 157/18/9 158/18/9 133/12/9
f 146/42/3 131/16/3 147/6/3 155/5/3
f 171/10/5 170/11/5 167/13/5 168/4/5
f 166/40/5 165/15/5 172/45/5 169/44/5
f 164/45/7 148/44/7 169/44/7 172/45/7
f 2/40/6 111/15/6 165/15/6 166/40/6
f 148/44/4 2/40/4 166/40/4 169/44/4
f 4/4/4 132/10/4 171/10/4 168/4/4
f 111/15/19 164/45/19 172/45/19 165/15/19
f 132/10/6 145/11/6 170/11/6 171/10/6
f 187/4/6 186/32/6 189/32/6 190/4/6
f 175/4/6 173/32/6 174/32/6 176/4/6
f 176/4/40 174/32/40 188/32/40 183/4/40
f 180/2/41 179/36/41 194/36/41 184/2/41
f 127/32/5 108/4/5 182/4/5 181/32/5
f 183/4/6 188/32/6 181/32/6 182/4/6
f 192/37/6 193/2/6 191/2/6
f 184/2/6 194/36/6 185/2/6
f 173/32/42 175/4/42 190/4/42 189/32/42
f 110/2/43 180/2/43 184/2/43 185/2/43
f 107/2/5 177/37/5 192/37/5 191/2/5
f 109/4/3 128/32/3 186/32/3 187/4/3
f 178/2/44 107/2/44 191/2/44 193/2/44
f 128/32/45 173/32/45 189/32/45 186/32/45
f 177/37/46 178/2/46 193/2/46 192/37/46
f 174/32/47 127/32/47 181/32/47 188/32/47
f 179/36/3 110/2/3 185/2/3 194/36/3
f 175/4/48 109/4/48 187/4/48 190/4/48
